<svg width="10" height="6" viewBox="0 0 10 6" fill="none" xmlns="http://www.w3.org/2000/svg">
<path fill-rule="evenodd" clip-rule="evenodd" d="M2.99968 2.57642C2.97632 2.55872 2.97222 2.52667 2.99076 2.50439C3.0093 2.48214 3.04371 2.47821 3.06706 2.49589L3.6525 2.93719L4.1685 2.64777C4.19399 2.63338 4.22694 2.64122 4.24272 2.66613C4.25784 2.69032 4.2489 2.72243 4.22281 2.73683L3.67649 3.04456C3.65795 3.05503 3.63323 3.05373 3.61538 3.04064L2.99968 2.57642ZM5.90284 3.20103H5.67541V4.0568H5.90284V3.20103ZM6.45532 2.67528H6.22782V4.05678H6.45532V2.67528ZM7.00771 2.96007H6.77961V4.05678H7.00771V2.96007ZM7.55954 2.5247H7.3328V4.05678H7.55954V2.5247ZM8.11202 2.2117H7.88452V4.05678H8.11202V2.2117ZM8.67815 1.73964H8.4514V4.05678H8.67815V1.73964ZM5.29268 0.915329C5.29268 0.943499 5.26867 0.967055 5.23835 0.967055C5.20814 0.967055 5.18411 0.943499 5.18411 0.915329V0.499572L5.0171 0.407898L4.50728 1.01747C4.49216 1.03581 4.46531 1.04172 4.44335 1.03255C4.37117 1.00635 4.29772 0.983448 4.22074 0.963772C4.14447 0.944792 4.06749 0.929076 3.99126 0.917298C3.96648 0.914016 3.94929 0.895713 3.94518 0.874087L3.82425 0.103491H3.4738L3.35149 0.874087C3.34806 0.898995 3.32679 0.916662 3.30198 0.917975C3.22578 0.929752 3.15084 0.944832 3.07664 0.963792C2.99897 0.983448 2.92483 1.007 2.85265 1.0332C2.83 1.04172 2.80453 1.03452 2.79008 1.01747L2.28026 0.407898L1.97724 0.574873L2.27681 1.30098C2.28575 1.32325 2.2775 1.34746 2.25827 1.36123C2.19779 1.40772 2.1401 1.45748 2.08508 1.50986C2.02873 1.56353 1.97586 1.6192 1.92772 1.67683C1.9126 1.6945 1.88719 1.70037 1.86521 1.69253L1.10321 1.40706L0.928664 1.69579L1.56841 2.1816C1.58764 2.19668 1.59382 2.22155 1.5842 2.24251C1.55674 2.31125 1.53263 2.38132 1.51202 2.45397C1.4921 2.52667 1.47563 2.60064 1.46329 2.67333C1.45984 2.69623 1.44055 2.71328 1.4179 2.71652L0.609155 2.83306V3.16695L1.4179 3.28288C1.44331 3.28612 1.4626 3.30642 1.46465 3.33067C1.47563 3.40205 1.49212 3.47403 1.51204 3.54543L1.51273 3.54672C1.53265 3.62005 1.55745 3.69076 1.58491 3.75884C1.59384 3.78046 1.58629 3.80468 1.56774 3.81777L0.928685 4.30359L1.10323 4.59298L1.86527 4.30751C1.88792 4.29902 1.91335 4.30622 1.92778 4.32321C1.97728 4.38152 2.03015 4.43716 2.08514 4.49018C2.14085 4.54256 2.19923 4.59298 2.25971 4.63949C2.27892 4.65453 2.2851 4.67878 2.27687 4.69905L1.97726 5.42517L2.28028 5.59214L2.7901 4.98253C2.8059 4.96357 2.83275 4.95768 2.85405 4.96684C2.92552 4.99371 3.00037 5.01659 3.07597 5.03561C3.15224 5.05523 3.22993 5.07092 3.30689 5.08208C3.33023 5.08537 3.34811 5.10369 3.35153 5.12532L3.47384 5.89591H3.82429L3.94522 5.12532C3.94933 5.10106 3.97061 5.08342 3.99541 5.08145C4.07095 5.07027 4.14653 5.05457 4.22145 5.03561C4.29843 5.01596 4.37326 4.99304 4.44544 4.9662C4.46809 4.95768 4.49287 4.96489 4.5073 4.98253L5.01712 5.59214L5.18413 5.49981V5.08471C5.18413 5.0559 5.20814 5.03299 5.23837 5.03299C5.26867 5.03299 5.2927 5.05588 5.2927 5.08471V5.52991C5.29201 5.54762 5.2831 5.56463 5.26525 5.57444L5.0309 5.70341C5.00754 5.7165 4.97801 5.71127 4.96148 5.69098L4.44684 5.07618C4.38153 5.09846 4.31561 5.11875 4.24895 5.13578C4.18364 5.15211 4.11634 5.16654 4.04761 5.17768L3.9253 5.95351C3.92188 5.97905 3.89922 6 3.871 6H3.42644C3.40028 6 3.37694 5.98168 3.37281 5.9555L3.25052 5.17768C3.1811 5.16652 3.1138 5.15211 3.04783 5.13578C2.98116 5.11875 2.91525 5.09846 2.85063 5.07618L2.33667 5.69098C2.31945 5.71061 2.29061 5.7165 2.26658 5.70341L1.88385 5.49257C1.85982 5.48079 1.84882 5.45332 1.85913 5.42841L2.16146 4.69575C2.10782 4.65385 2.05702 4.60933 2.00821 4.56349C1.95945 4.51636 1.91268 4.46726 1.86876 4.41749L1.09983 4.7056C1.07513 4.71411 1.04623 4.7056 1.03316 4.68266L0.813308 4.31929C0.797503 4.29705 0.802326 4.26691 0.82429 4.25055L1.46953 3.76079C1.44613 3.6986 1.42552 3.63641 1.40767 3.57354L1.40698 3.57225C1.38982 3.5094 1.3747 3.44522 1.36305 3.37975L0.54942 3.26324C0.521965 3.26062 0.5 3.23834 0.5 3.21146V2.78784C0.5 2.763 0.519918 2.74071 0.546685 2.7368L1.36305 2.62025C1.37472 2.5541 1.38984 2.48994 1.40698 2.42775C1.42483 2.36357 1.44544 2.30073 1.46953 2.23919L0.82429 1.74945C0.803683 1.73373 0.797503 1.70556 0.811241 1.68332L1.03112 1.31994C1.04348 1.29569 1.07375 1.28457 1.09985 1.29438L1.86878 1.58245C1.91342 1.5314 1.96016 1.48228 2.00823 1.43647C2.05704 1.38999 2.10784 1.34545 2.16148 1.30359L1.85915 0.570934C1.84955 0.547995 1.85915 0.520521 1.88249 0.507391L2.2666 0.295932C2.28994 0.283497 2.31947 0.288073 2.33669 0.308366L2.85065 0.923804C2.91596 0.900925 2.98187 0.880593 3.04854 0.863583C3.11385 0.84723 3.18114 0.832826 3.25056 0.821705L3.37285 0.0458371C3.37491 0.0202925 3.39895 0 3.42649 0H3.87104C3.8972 0 3.92054 0.0183228 3.92466 0.0438475L4.04763 0.821685C4.11637 0.832806 4.18366 0.847229 4.24897 0.863563C4.31563 0.880573 4.38155 0.900905 4.44686 0.923784L4.9615 0.308346C4.97735 0.28871 5.00756 0.283478 5.03092 0.295912L5.26107 0.422958C5.27967 0.430817 5.29272 0.449119 5.29272 0.470088V0.915329H5.29268ZM5.84234 4.39264C5.81213 4.39264 5.78809 4.36974 5.78809 4.34091C5.78809 4.31274 5.8121 4.28921 5.84234 4.28921H8.14908C8.17927 4.28921 8.2034 4.31274 8.2034 4.34091C8.2034 4.36972 8.17929 4.39264 8.14908 4.39264H5.84234ZM6.91426 4.64078C6.88407 4.64078 6.85933 4.61723 6.85933 4.58908C6.85933 4.56025 6.88407 4.53733 6.91426 4.53733H8.97636C9.00594 4.53733 9.03069 4.56023 9.03069 4.58908C9.03069 4.61723 9.00594 4.64078 8.97636 4.64078H6.91426ZM9.18736 4.64078C9.15775 4.64078 9.13234 4.61723 9.13234 4.58908C9.13234 4.56025 9.15775 4.53733 9.18736 4.53733H9.44498C9.47526 4.53733 9.5 4.56023 9.5 4.58908C9.5 4.61723 9.47526 4.64078 9.44498 4.64078H9.18736ZM5.05147 4.63358C5.02126 4.63358 4.9972 4.60999 4.9972 4.5812C4.9972 4.55303 5.02123 4.52947 5.05147 4.52947H6.02858C6.05885 4.52947 6.0829 4.55303 6.0829 4.5812C6.0829 4.60999 6.05887 4.63358 6.02858 4.63358H5.05147ZM8.48368 1.46597C8.48094 1.49414 8.45485 1.51507 8.42463 1.51244C8.39511 1.51049 8.37306 1.48493 8.37582 1.45682L8.3806 1.39855L7.60483 2.13773C7.58424 2.15739 7.54923 2.15739 7.52793 2.13773L7.36228 1.97929L6.73566 2.57642C6.7143 2.59606 6.67998 2.59606 6.65866 2.57642L6.3646 2.29621L5.57713 3.04651C5.55577 3.06681 5.52143 3.06681 5.50013 3.04651C5.47884 3.02622 5.47884 2.99349 5.50013 2.97318L6.32606 2.18617C6.3474 2.16588 6.38174 2.16588 6.40302 2.18617L6.69712 2.46639L7.32384 1.86929C7.34513 1.84898 7.37946 1.84898 7.40076 1.86929L7.56639 2.02773L8.32222 1.30819L8.22674 1.3049C8.19714 1.30361 8.1738 1.27936 8.17449 1.25121C8.17586 1.2224 8.20131 1.20014 8.23084 1.20145L8.44522 1.20865C8.46036 1.208 8.47543 1.21325 8.4871 1.22373C8.50024 1.23617 8.50504 1.25383 8.50159 1.27023L8.48368 1.46597ZM4.75188 1.94851C4.66803 1.86931 4.57526 1.79924 4.47494 1.73902L4.33 1.97865C4.31488 2.00354 4.28187 2.0114 4.25577 1.99763C4.23036 1.98323 4.22143 1.9518 4.23585 1.92693L4.3808 1.6873C4.1781 1.58385 3.94794 1.52229 3.70267 1.51443V1.79073C3.70267 1.81954 3.67856 1.84245 3.64903 1.84245C3.61882 1.84245 3.59402 1.81956 3.59402 1.79073V1.51443C3.34946 1.52229 3.11927 1.58385 2.91589 1.6873L3.06152 1.92693C3.07595 1.9518 3.06703 1.98323 3.0416 1.99763C3.01551 2.0114 2.98181 2.00354 2.96669 1.97865L2.82244 1.73902C2.72143 1.79924 2.62933 1.86931 2.5455 1.94851C2.46234 2.02841 2.38812 2.11678 2.32559 2.21237L2.57709 2.35052C2.6025 2.36493 2.61144 2.39636 2.59703 2.42123C2.58191 2.44614 2.54895 2.45463 2.52279 2.44023L2.27134 2.30142C2.16277 2.49522 2.09815 2.71523 2.08993 2.94829H2.37989C2.40941 2.94829 2.43422 2.97119 2.43422 3.00002C2.43422 3.02819 2.40941 3.05175 2.37989 3.05175H2.08993C2.09815 3.28485 2.16277 3.50417 2.27134 3.69796L2.52279 3.55916C2.54895 3.54543 2.58191 3.5539 2.59703 3.57814C2.61144 3.60302 2.60252 3.63446 2.57709 3.64886L2.32559 3.78701C2.38812 3.88324 2.46234 3.97163 2.5455 4.05085C2.62935 4.13007 2.72143 4.20082 2.82244 4.26038L2.96669 4.02075C2.98181 3.9965 3.01551 3.988 3.0416 4.00241C3.06701 4.01615 3.07595 4.04822 3.06152 4.07246L2.91589 4.31209C3.11927 4.41552 3.34946 4.47709 3.59402 4.48493V4.20863C3.59402 4.18046 3.61882 4.15691 3.64903 4.15691C3.67856 4.15691 3.70267 4.18046 3.70267 4.20863V4.48493C3.94794 4.47707 4.1781 4.41552 4.3808 4.31209L4.23585 4.07246C4.22143 4.0482 4.23036 4.01615 4.25577 4.00241C4.28187 3.98798 4.3149 3.9965 4.33 4.02075L4.47563 4.26038C4.57526 4.20082 4.66874 4.13007 4.75188 4.05085C4.83501 3.97165 4.90857 3.88324 4.97179 3.78701L4.72029 3.64886C4.69488 3.63446 4.68594 3.60302 4.70035 3.57814C4.71546 3.5539 4.74841 3.54541 4.77457 3.55916L5.02601 3.69796C5.13458 3.50417 5.19921 3.28483 5.20743 3.05175H4.91749C4.88794 3.05175 4.86316 3.02819 4.86316 3.00002C4.86316 2.97119 4.88794 2.94829 4.91749 2.94829H5.20745C5.19921 2.71523 5.13461 2.49522 5.02604 2.30142L4.77459 2.44023C4.74843 2.45463 4.71546 2.44614 4.70037 2.42123C4.68596 2.39636 4.69488 2.36493 4.72031 2.35052L4.97181 2.21237C4.90995 2.11746 4.83641 2.02968 4.75463 1.95112L4.75188 1.94851Z" fill="url(#paint0_linear_2962_367)"/>
<defs>
<linearGradient id="paint0_linear_2962_367" x1="2.16044" y1="1.24932" x2="9.33756" y2="5.44339" gradientUnits="userSpaceOnUse">
<stop stop-color="#283DFF"/>
<stop offset="1" stop-color="#FF4ED8"/>
</linearGradient>
</defs>
</svg>
