<svg width="9" height="6" viewBox="0 0 9 6" fill="none" xmlns="http://www.w3.org/2000/svg">
<path fill-rule="evenodd" clip-rule="evenodd" d="M2.49968 2.57642C2.47632 2.55872 2.47222 2.52667 2.49076 2.50439C2.5093 2.48214 2.54371 2.47821 2.56706 2.49589L3.1525 2.93719L3.6685 2.64777C3.69399 2.63338 3.72694 2.64122 3.74272 2.66613C3.75784 2.69032 3.7489 2.72243 3.72281 2.73683L3.17649 3.04456C3.15795 3.05503 3.13323 3.05373 3.11538 3.04064L2.49968 2.57642ZM5.40284 3.20103H5.17541V4.0568H5.40284V3.20103ZM5.95532 2.67528H5.72782V4.05678H5.95532V2.67528ZM6.50771 2.96007H6.27961V4.05678H6.50771V2.96007ZM7.05954 2.5247H6.8328V4.05678H7.05954V2.5247ZM7.61202 2.2117H7.38452V4.05678H7.61202V2.2117ZM8.17815 1.73964H7.9514V4.05678H8.17815V1.73964ZM4.79268 0.915329C4.79268 0.943499 4.76867 0.967055 4.73835 0.967055C4.70814 0.967055 4.68411 0.943499 4.68411 0.915329V0.499572L4.5171 0.407898L4.00728 1.01747C3.99216 1.03581 3.96531 1.04172 3.94335 1.03255C3.87117 1.00635 3.79772 0.983448 3.72074 0.963772C3.64447 0.944792 3.56749 0.929076 3.49126 0.917298C3.46648 0.914016 3.44929 0.895713 3.44518 0.874087L3.32425 0.103491H2.9738L2.85149 0.874087C2.84806 0.898995 2.82679 0.916662 2.80198 0.917975C2.72578 0.929752 2.65084 0.944832 2.57664 0.963792C2.49897 0.983448 2.42483 1.007 2.35265 1.0332C2.33 1.04172 2.30453 1.03452 2.29008 1.01747L1.78026 0.407898L1.47724 0.574873L1.77681 1.30098C1.78575 1.32325 1.7775 1.34746 1.75827 1.36123C1.69779 1.40772 1.6401 1.45748 1.58508 1.50986C1.52873 1.56353 1.47586 1.6192 1.42772 1.67683C1.4126 1.6945 1.38719 1.70037 1.36521 1.69253L0.603211 1.40706L0.428664 1.69579L1.06841 2.1816C1.08764 2.19668 1.09382 2.22155 1.0842 2.24251C1.05674 2.31125 1.03263 2.38132 1.01202 2.45397C0.992101 2.52667 0.975627 2.60064 0.963288 2.67333C0.959843 2.69623 0.940551 2.71328 0.917897 2.71652L0.109155 2.83306V3.16695L0.917897 3.28288C0.943307 3.28612 0.962599 3.30642 0.964645 3.33067C0.975627 3.40205 0.992122 3.47403 1.01204 3.54543L1.01273 3.54672C1.03265 3.62005 1.05745 3.69076 1.08491 3.75884C1.09384 3.78046 1.08629 3.80468 1.06774 3.81777L0.428685 4.30359L0.603232 4.59298L1.36527 4.30751C1.38792 4.29902 1.41335 4.30622 1.42778 4.32321C1.47728 4.38152 1.53015 4.43716 1.58514 4.49018C1.64085 4.54256 1.69923 4.59298 1.75971 4.63949C1.77892 4.65453 1.7851 4.67878 1.77687 4.69905L1.47726 5.42517L1.78028 5.59214L2.2901 4.98253C2.3059 4.96357 2.33275 4.95768 2.35405 4.96684C2.42552 4.99371 2.50037 5.01659 2.57597 5.03561C2.65224 5.05523 2.72993 5.07092 2.80689 5.08208C2.83023 5.08537 2.84811 5.10369 2.85153 5.12532L2.97384 5.89591H3.32429L3.44522 5.12532C3.44933 5.10106 3.47061 5.08342 3.49541 5.08145C3.57095 5.07027 3.64653 5.05457 3.72145 5.03561C3.79843 5.01596 3.87326 4.99304 3.94544 4.9662C3.96809 4.95768 3.99287 4.96489 4.0073 4.98253L4.51712 5.59214L4.68413 5.49981V5.08471C4.68413 5.0559 4.70814 5.03299 4.73837 5.03299C4.76867 5.03299 4.7927 5.05588 4.7927 5.08471V5.52991C4.79201 5.54762 4.7831 5.56463 4.76525 5.57444L4.5309 5.70341C4.50754 5.7165 4.47801 5.71127 4.46148 5.69098L3.94684 5.07618C3.88153 5.09846 3.81561 5.11875 3.74895 5.13578C3.68364 5.15211 3.61634 5.16654 3.54761 5.17768L3.4253 5.95351C3.42188 5.97905 3.39922 6 3.371 6H2.92644C2.90028 6 2.87694 5.98168 2.87281 5.9555L2.75052 5.17768C2.6811 5.16652 2.6138 5.15211 2.54783 5.13578C2.48116 5.11875 2.41525 5.09846 2.35063 5.07618L1.83667 5.69098C1.81945 5.71061 1.79061 5.7165 1.76658 5.70341L1.38385 5.49257C1.35982 5.48079 1.34882 5.45332 1.35913 5.42841L1.66146 4.69575C1.60782 4.65385 1.55702 4.60933 1.50821 4.56349C1.45945 4.51636 1.41268 4.46726 1.36876 4.41749L0.599829 4.7056C0.575129 4.71411 0.546233 4.7056 0.533163 4.68266L0.313308 4.31929C0.297503 4.29705 0.302326 4.26691 0.32429 4.25055L0.969531 3.76079C0.946126 3.6986 0.925518 3.63641 0.907667 3.57354L0.906978 3.57225C0.889815 3.5094 0.874699 3.44522 0.863049 3.37975L0.0494203 3.26324C0.0219646 3.26062 0 3.23834 0 3.21146V2.78784C0 2.763 0.0199184 2.74071 0.0466851 2.7368L0.863049 2.62025C0.87472 2.5541 0.889836 2.48994 0.906978 2.42775C0.924829 2.36357 0.945437 2.30073 0.969531 2.23919L0.32429 1.74945C0.303683 1.73373 0.297503 1.70556 0.311241 1.68332L0.531117 1.31994C0.543477 1.29569 0.573751 1.28457 0.59985 1.29438L1.36878 1.58245C1.41342 1.5314 1.46016 1.48228 1.50823 1.43647C1.55704 1.38999 1.60784 1.34545 1.66148 1.30359L1.35915 0.570934C1.34955 0.547995 1.35915 0.520521 1.38249 0.507391L1.7666 0.295932C1.78994 0.283497 1.81947 0.288073 1.83669 0.308366L2.35065 0.923804C2.41596 0.900925 2.48187 0.880593 2.54854 0.863583C2.61385 0.84723 2.68114 0.832826 2.75056 0.821705L2.87285 0.0458371C2.87491 0.0202925 2.89895 0 2.92649 0H3.37104C3.3972 0 3.42054 0.0183228 3.42466 0.0438475L3.54763 0.821685C3.61637 0.832806 3.68366 0.847229 3.74897 0.863563C3.81563 0.880573 3.88155 0.900905 3.94686 0.923784L4.4615 0.308346C4.47735 0.28871 4.50756 0.283478 4.53092 0.295912L4.76107 0.422958C4.77967 0.430817 4.79272 0.449119 4.79272 0.470088V0.915329H4.79268ZM5.34234 4.39264C5.31213 4.39264 5.28809 4.36974 5.28809 4.34091C5.28809 4.31274 5.3121 4.28921 5.34234 4.28921H7.64908C7.67927 4.28921 7.7034 4.31274 7.7034 4.34091C7.7034 4.36972 7.67929 4.39264 7.64908 4.39264H5.34234ZM6.41426 4.64078C6.38407 4.64078 6.35933 4.61723 6.35933 4.58908C6.35933 4.56025 6.38407 4.53733 6.41426 4.53733H8.47636C8.50594 4.53733 8.53069 4.56023 8.53069 4.58908C8.53069 4.61723 8.50594 4.64078 8.47636 4.64078H6.41426ZM8.68736 4.64078C8.65775 4.64078 8.63234 4.61723 8.63234 4.58908C8.63234 4.56025 8.65775 4.53733 8.68736 4.53733H8.94498C8.97526 4.53733 9 4.56023 9 4.58908C9 4.61723 8.97526 4.64078 8.94498 4.64078H8.68736ZM4.55147 4.63358C4.52126 4.63358 4.4972 4.60999 4.4972 4.5812C4.4972 4.55303 4.52123 4.52947 4.55147 4.52947H5.52858C5.55885 4.52947 5.5829 4.55303 5.5829 4.5812C5.5829 4.60999 5.55887 4.63358 5.52858 4.63358H4.55147ZM7.98368 1.46597C7.98094 1.49414 7.95485 1.51507 7.92463 1.51244C7.89511 1.51049 7.87306 1.48493 7.87582 1.45682L7.8806 1.39855L7.10483 2.13773C7.08424 2.15739 7.04923 2.15739 7.02793 2.13773L6.86228 1.97929L6.23566 2.57642C6.2143 2.59606 6.17998 2.59606 6.15866 2.57642L5.8646 2.29621L5.07713 3.04651C5.05577 3.06681 5.02143 3.06681 5.00013 3.04651C4.97884 3.02622 4.97884 2.99349 5.00013 2.97318L5.82606 2.18617C5.8474 2.16588 5.88174 2.16588 5.90302 2.18617L6.19712 2.46639L6.82384 1.86929C6.84513 1.84898 6.87946 1.84898 6.90076 1.86929L7.06639 2.02773L7.82222 1.30819L7.72674 1.3049C7.69714 1.30361 7.6738 1.27936 7.67449 1.25121C7.67586 1.2224 7.70131 1.20014 7.73084 1.20145L7.94522 1.20865C7.96036 1.208 7.97543 1.21325 7.9871 1.22373C8.00024 1.23617 8.00504 1.25383 8.00159 1.27023L7.98368 1.46597ZM4.25188 1.94851C4.16803 1.86931 4.07526 1.79924 3.97494 1.73902L3.83 1.97865C3.81488 2.00354 3.78187 2.0114 3.75577 1.99763C3.73036 1.98323 3.72143 1.9518 3.73585 1.92693L3.8808 1.6873C3.6781 1.58385 3.44794 1.52229 3.20267 1.51443V1.79073C3.20267 1.81954 3.17856 1.84245 3.14903 1.84245C3.11882 1.84245 3.09402 1.81956 3.09402 1.79073V1.51443C2.84946 1.52229 2.61927 1.58385 2.41589 1.6873L2.56152 1.92693C2.57595 1.9518 2.56703 1.98323 2.5416 1.99763C2.51551 2.0114 2.48181 2.00354 2.46669 1.97865L2.32244 1.73902C2.22143 1.79924 2.12933 1.86931 2.0455 1.94851C1.96234 2.02841 1.88812 2.11678 1.82559 2.21237L2.07709 2.35052C2.1025 2.36493 2.11144 2.39636 2.09703 2.42123C2.08191 2.44614 2.04895 2.45463 2.02279 2.44023L1.77134 2.30142C1.66277 2.49522 1.59815 2.71523 1.58993 2.94829H1.87989C1.90941 2.94829 1.93422 2.97119 1.93422 3.00002C1.93422 3.02819 1.90941 3.05175 1.87989 3.05175H1.58993C1.59815 3.28485 1.66277 3.50417 1.77134 3.69796L2.02279 3.55916C2.04895 3.54543 2.08191 3.5539 2.09703 3.57814C2.11144 3.60302 2.10252 3.63446 2.07709 3.64886L1.82559 3.78701C1.88812 3.88324 1.96234 3.97163 2.0455 4.05085C2.12935 4.13007 2.22143 4.20082 2.32244 4.26038L2.46669 4.02075C2.48181 3.9965 2.51551 3.988 2.5416 4.00241C2.56701 4.01615 2.57595 4.04822 2.56152 4.07246L2.41589 4.31209C2.61927 4.41552 2.84946 4.47709 3.09402 4.48493V4.20863C3.09402 4.18046 3.11882 4.15691 3.14903 4.15691C3.17856 4.15691 3.20267 4.18046 3.20267 4.20863V4.48493C3.44794 4.47707 3.6781 4.41552 3.8808 4.31209L3.73585 4.07246C3.72143 4.0482 3.73036 4.01615 3.75577 4.00241C3.78187 3.98798 3.8149 3.9965 3.83 4.02075L3.97563 4.26038C4.07526 4.20082 4.16874 4.13007 4.25188 4.05085C4.33501 3.97165 4.40857 3.88324 4.47179 3.78701L4.22029 3.64886C4.19488 3.63446 4.18594 3.60302 4.20035 3.57814C4.21546 3.5539 4.24841 3.54541 4.27457 3.55916L4.52601 3.69796C4.63458 3.50417 4.69921 3.28483 4.70743 3.05175H4.41749C4.38794 3.05175 4.36316 3.02819 4.36316 3.00002C4.36316 2.97119 4.38794 2.94829 4.41749 2.94829H4.70745C4.69921 2.71523 4.63461 2.49522 4.52604 2.30142L4.27459 2.44023C4.24843 2.45463 4.21546 2.44614 4.20037 2.42123C4.18596 2.39636 4.19488 2.36493 4.22031 2.35052L4.47181 2.21237C4.40995 2.11746 4.33641 2.02968 4.25463 1.95112L4.25188 1.94851Z" fill="white"/>
</svg>
